<?xml version="1.0" encoding="UTF-8"?>
<svg id="FAMOFAFA_Image" data-name="FAMOFAFA Image" xmlns="http://www.w3.org/2000/svg" viewBox="0 0 104.67 116.56">
  <path d="M46.36,109.33c-.21-.02-.3.12-.39.33-.14.33-.34.63-.54.92-.33.46-.61.55-1.15.37-.21-.07-.39-.21-.63-.13-.04.01-.11-.01-.14-.05-.38-.38-.8-.22-1.19-.06-.28.12-.54.21-.84.07-.07-.03-.18-.06-.24-.03-.77.33-1.6.19-2.39.32-.18.03-.37.07-.54.14-.42.16-.86.14-1.27.02-.35-.1-.49-.47-.57-.81-.13-.56-.08-1.12-.06-1.68.02-.75.27-1.52-.07-2.28-.12-.26-.04-.6-.06-.91-.02-.2-.07-.4-.1-.6-.02-.15-.06-.31-.04-.45.03-.23.03-.43-.08-.65-.07-.14-.04-.33-.02-.5.03-.38-.04-.45-.4-.49-.58-.06-1.15-.05-1.73.06-.36.07-.75.02-1.13.01-.8-.01-1.56.19-2.33.38-.26.07-.53.11-.8.13-.19,0-.29.1-.43.21-.48.37-.52.88-.6,1.41-.03.18-.1.36-.18.53-.23.45-.34.93-.35,1.44-.01.6-.05,1.2-.07,1.8-.02.55-.08,1.1-.05,1.64.02.31.13.63.27.91.23.48.12,1.02-.34,1.31-.04.03-.1.05-.13.08-.55.65-1.27.7-2.04.62-.1-.01-.21-.06-.3-.04-.71.19-1.43,0-2.15.06-.27.02-.55-.04-.82-.07-.4-.05-.78.05-1.16.14-.65.15-1.31.31-1.94-.11-.3-.2-.49-.64-.43-1.01.04-.25.05-.52.12-.76.08-.27.24-.52.3-.8.11-.52.33-1.01.33-1.56,0-.27.04-.53.06-.8,0-.03,0-.08.03-.1.44-.47.42-1.09.56-1.66.15-.58.2-1.18.31-1.77.05-.29.14-.57.19-.85.08-.5.12-1.02.23-1.51.15-.66.38-1.31.55-1.97.06-.21.05-.44.09-.66.2-1.08.41-2.15.6-3.23.08-.47.12-.95.19-1.42.11-.66.23-1.31.35-1.97.11-.66.24-1.31.33-1.98.08-.55.12-1.11.2-1.67.13-.9.29-1.79.43-2.68.05-.29.07-.58.12-.86.07-.39.24-.77.21-1.15-.04-.66.4-1.22.3-1.87-.02-.15,0-.31-.01-.46,0-.07-.05-.17-.02-.2.34-.34.11-.78.21-1.17.11-.4.14-.81.19-1.22.03-.22.03-.44.06-.66.03-.32.02-.63.09-.95.13-.59.12-1.22.16-1.83,0-.05-.02-.11,0-.15.36-.64.18-1.34.27-2.02.11-.83.07-1.66.35-2.48.17-.48.14-1.02.23-1.52.11-.64.18-1.3.41-1.9.16-.41.16-.83.26-1.24.1-.42.1-.88.09-1.32,0-.32-.09-.64-.14-.96-.04-.23-.15-.46-.15-.7,0-.5.29-.83.8-.91.27-.04.55-.03.82-.05.34-.02.68-.04,1.03-.07.42-.04.85-.07,1.27-.12.15-.02.3-.06.44-.11.75-.25,1.51-.26,2.29-.1.17.04.37.02.54-.01.35-.06.7-.16,1.05-.22.3-.05.6-.08.87-.27.17-.11.43-.11.64-.09.38.04.65-.06.84-.41.17-.3.55-.44.9-.34.23.07.44.18.66.28.16.07.32.14.54.24.07.11.18.3.32.47.28.33.17.79-.24.97-.18.08-.35.17-.47.22.08.52.18.94.21,1.37.03.44-.03.89,0,1.33.02.32.15.63.19.95.07.56.11,1.12.15,1.69,0,.12-.03.25,0,.36.34.91.25,1.9.5,2.83.15.56.14,1.15.24,1.73.12.74.28,1.48.4,2.23.21,1.37.54,2.73.67,4.11.07.78.15,1.57.26,2.35.1.69.27,1.38.4,2.07.06.33.07.69.18,1,.15.44.16.85.09,1.3-.05.31.04.64.07.97.02.24.02.48.05.72.1.82.25,1.63.31,2.45.07.86.31,1.68.33,2.55.03.95.2,1.89.34,2.83.06.43.21.85.26,1.29.06.44.03.9.1,1.34.08.52.09,1.06.44,1.51.09.11.1.29.13.44.19,1.22.43,2.43.55,3.66.06.59.14,1.15.32,1.7.17.53.25,1.11.65,1.55.13.14.3.25.49.41M46.51,108.9c-.03-.15-.05-.3-.07-.45-.06-.46.04-.76.16-1.19s-.08-.88-.07-1.3c0-.55,0-1.12-.04-1.67-.09-1.16-.39-2.32-.34-3.49.06-1.48-.11-2.97-.12-4.46-.01-1.24.03-2.48.18-3.71.36-2.77.33-5.6.46-8.4.08-1.87.04-3.7.4-5.54.12-.59.1-1.2.09-1.81-.03-1.26-.13-2.54-.07-3.8s.32-2.58.13-3.88c-.02-.12-.04-.24-.03-.35.02-.39.13-.69.09-1.09-.04-.37-.13-.74-.14-1.12-.03-.88,0-1.82.13-2.68.13-.84-.23-1.81.05-2.61.02-.06.04-.11.09-.15.05-.04.13-.05.19-.06.97-.12,1.95-.23,2.92-.4.51-.09,1.03-.2,1.53-.33.41-.11,1-.45,1.41-.45,2.01-.77,4.26-.87,6.38-1.02,1-.07,1.98-.27,2.96-.45s2.05-.09,2.94-.37c.13-.04.25-.1.38-.14.39-.1,1.37.2,1.27.74-.02.11-.06.24-.07.39-.02.21.09.4.15.6.17.52.07,1.08.03,1.63-.04.71.03,1.42.1,2.12.06.61.13,1.23.19,1.84.06.57.49,1.11-.11,1.41-.36.18-.78.26-1.17.35-.7.17-1.28.12-2,.1-.62-.02-1.24.11-1.85.23-1.13.22-1.89-.09-3.02.06-.52.07-1.39.21-1.88.35-.55.16-1.1.25-1.65.43,0,.68-.02,1.91-.02,2.59-.01,1.1-.23,2.19-.24,3.3,0,1,.09,2.01.18,3.01.04.52,0,1.09.1,1.6.07.36,0,.89.28,1.17.33.33.96.2,1.34.06.88-.34,1.49-.41,2.42-.46.63-.03,1.23-.26,1.85-.42.93-.24,3.55-.23,3.3,1.37-.04.29-.21.54-.3.81-.18.56-.04,1.15-.01,1.72s-.13,1.09-.2,1.65c-.11.78-.25,1.75-.19,2.54.06.73-.04,1.94-.93,2.13-.32.07-.65.01-.98,0-1.99-.08-3.75,1.44-5.73,1.24-.32-.03-.92-.19-.97.26-.1.94-.21,1.88-.3,2.82-.04.42.06.88-.07,1.27-.28.86-.09,1.74-.19,2.61-.11.93-.08,1.88-.09,2.82,0,.32.13.64.15.96.03.55.01,1.1.01,1.64,0,.33-.02.6.14.9.15.28.13.46.13.76,0,.22,0,.44,0,.66,0,.51.02,1.03.1,1.53.06.3.32.5.37.77.02.11,0,.23,0,.34-.05.48-.12.98-.43,1.37-.24.29-.55.48-.93.47-.2,0-.38-.1-.59-.1-.24,0-.47.06-.7.1-.35.06-.71.05-1.06.09-.51.06-.92.27-1.4.42-.51.16-1.08.18-1.61.24-.91.11-2.52.33-2.86-.83-.07-.25-.13-.49-.18-.75ZM32.66,82.43c-.03.06-.07.11-.07.15-.09.49-.17.98-.25,1.47-.06.37-.09.75-.15,1.12-.1.6-.23,1.2-.33,1.8-.03.18-.09.39-.03.56.11.32-.01.56-.12.83-.07.17-.1.35-.14.53-.12.44-.25.88-.15,1.35,0,.04-.02.1-.04.15-.27.54-.28,1.11-.29,1.7-.01.51-.06,1.04-.23,1.51-.19.52-.17,1.03-.19,1.6.54.07,1.05.14,1.56.19.11.01.24-.03.35-.08.48-.23.97-.3,1.49-.11.09-.18.2-.33.23-.49.16-.81.21-1.62.02-2.44-.11-.47-.24-.94-.13-1.45.14-.63-.14-1.23-.27-1.84-.04-.17-.1-.34-.07-.5.07-.45-.07-.87-.11-1.3-.02-.2-.06-.38-.22-.55-.12-.12-.17-.39-.13-.56.07-.25.04-.46-.04-.7-.07-.23-.09-.47-.14-.7-.03-.13-.06-.26-.1-.39-.04-.18-.11-.35-.12-.53-.02-.25-.19-1.08-.32-1.31Z"/>
  <path d="M62.88,29.66c.39-.59.41-1.21.49-1.82.06-.46.15-.91.23-1.36.07-.38.15-.77.2-1.15.06-.42.09-.85.13-1.28.03-.36.04-.72.07-1.08,0-.07.01-.15.05-.2.25-.28.26-.59.16-.92-.02-.06,0-.14.02-.2.18-.66.43-1.31.52-1.98.09-.64.45-1.21.4-1.89-.03-.4.19-.82.27-1.24.04-.22.04-.44.05-.66.01-.37-.02-.75.03-1.12.1-.83.24-1.66.34-2.49.06-.53.1-1.06.13-1.59.01-.25.17-.45.14-.74-.05-.52.06-1.04.09-1.57,0-.1-.01-.2,0-.3.02-.35-.04-.71.1-1.06.05-.12.02-.27.03-.4.02-.18,0-.38.07-.54.1-.22.18-.37.02-.61-.14-.21.24-1.24.48-1.31.27-.08.57-.12.85-.09.4.05.78.09,1.14-.16.08-.06.2-.09.29-.07.86.13,1.69,0,2.53-.17.17-.03.32-.12.49-.17.11-.04.25-.11.34-.08.32.11.6,0,.9-.08.23-.06.5-.01.7-.12.47-.24,1-.15,1.47-.34.24-.1.43-.18.42-.4.3-.06.56-.09.82-.15.43-.1.85-.17,1.2.21.09.1.22.17.35.21.2.06.31.2.31.37,0,.35.22.51.48.67.55.34.63.73.3,1.28-.29.49-.44,1.04-.54,1.6-.02.11.01.24.04.35.08.32.1.64-.05.96-.06.13-.09.3-.07.45.07.5-.05.98-.18,1.46-.04.15-.07.3-.07.46,0,.84,0,1.68,0,2.52,0,.24-.05.48-.07.72,0,.05-.04.1-.03.15.1.73.06,1.47.05,2.21,0,.41,0,.83.1,1.23.18.74.03,1.45-.07,2.18-.06.46-.11.93-.07,1.39.07.76-.08,1.55.22,2.29.02.04.02.11,0,.14-.33.49-.14,1.04-.18,1.57-.04.59-.02,1.19-.03,1.79,0,.89-.02,1.78,0,2.68,0,.41.07.82.08,1.23.01.55-.01,1.09,0,1.64.01.58-.01,1.18.09,1.75.13.69.1,1.35,0,2.03-.08.56-.02,1.13-.05,1.7-.03.55-.08,1.09-.12,1.64,0,.1-.07.21-.05.3.16.82-.05,1.64.01,2.44.06.81-.06,1.6,0,2.41.05.66-.07,1.33-.1,1.99-.03.51-.07,1.02-.06,1.53,0,.49.06.99.09,1.48.04.68.04,1.37.11,2.05.05.49-.1.87-.51,1.15-.72-.46-1.44-.35-2.18,0-.56.26-1.14.47-1.71.73-.64.29-1.31.34-2,.32-.23,0-.47.1-.68.2-.36.18-.72.27-1.13.22-.26-.03-.41-.1-.5-.35-.07-.19-.16-.38-.27-.55-.23-.34-.28-.69-.13-1.08.04-.11.04-.23.05-.35.01-.22,0-.45.04-.66.08-.41,0-.78-.15-1.16-.08-.2-.16-.43-.15-.63.04-.62.01-1.23-.14-1.83-.12-.48-.22-.97-.16-1.48.02-.17-.09-.35-.15-.56-.32.11-.47.31-.54.56-.08.3-.13.6-.19.91-.02.08,0,.18-.04.25-.28.47-.17,1.01-.27,1.51-.1.48-.23.96-.35,1.44-.05.2-.09.4-.13.6-.02.1,0,.23-.05.3-.29.43-.29.93-.36,1.41-.03.18-.02.38.04.55.1.3.1.57-.06.87-.38.2-.77.18-1.15-.07-.25-.16-.45-.2-.68.04-.08.08-.29.06-.42.02-.41-.13-.74-.05-1.02.28-.15.18-.31.35-.48.52-.07.07-.16.11-.26.14-.1.03-.2.03-.31.03-.59.01-1.17.12-1.76.07-.11-.01-.25,0-.35.07-.56.35-.99.05-1.39-.28-.28-.24-.49-.55-.76-.82-.23-.23-.27-.65-.35-1-.07-.3-.07-.61-.11-.91-.04-.3-.2-.59-.04-.91.02-.05-.03-.13-.04-.19-.05-.27-.16-.54-.13-.8.05-.4-.1-.73-.22-1.08-.04-.11-.1-.23-.09-.34.04-.52-.17-1.01-.21-1.51-.06-.78-.47-1.51-.28-2.34.07-.29-.1-.64-.16-.96-.04-.18-.1-.36-.11-.55-.07-.82-.21-1.64-.17-2.46.03-.58-.16-1.13-.11-1.71.04-.41-.14-.84-.22-1.27-.02-.13-.02-.27-.04-.4-.02-.19-.04-.38-.06-.62-.32.2-.43.4-.47.7-.07.51-.19,1.01-.09,1.53.02.09-.07.19-.09.28-.03.12-.04.25-.05.37,0,.07.01.13,0,.2-.04.25-.12.5-.12.75-.01.66,0,1.33.02,1.99,0,.15.08.3.09.45.01.2.08.46-.02.59-.32.44-.13.81.08,1.2-.08.16-.16.33-.24.5-.11.24-.14.47-.04.75.09.27.16.58.13.86-.06.6.19,1.2-.03,1.79.17.66-.06,1.32-.04,1.98,0,.14-.01.3.05.41.35.6.34,1.2.09,1.83-.05.12.01.3.07.43.06.13.18.24.23.3-.03.34-.05.61-.08.98-.06.08-.22.25-.32.44-.17.32-.44.44-.76.45-.43,0-.86-.05-1.29-.03-.65.02-1.29-.17-1.93.02-.64.2-1.28.41-1.9.69-.21.1-.45.13-.68.18-.24.05-.49.08-.77.13-.09-.3-.2-.65-.31-1-.04-.14-.08-.29-.15-.42-.17-.32-.38-.63-.15-1-.14-.6.21-1.21-.06-1.83-.1-.23.06-.56.09-.85.02-.19,0-.37,0-.56,0-.37,0-.75,0-1.12,0-1.09.2-2.18-.09-3.27-.02-.06-.05-.15-.02-.2.31-.51.07-1.09.2-1.62.07-.28.08-.57.12-.86,0-.03.02-.07.01-.1-.17-.7.19-1.37.1-2.08-.03-.24.17-.49.13-.78-.06-.49-.06-.99-.06-1.49,0-.62.01-1.23.02-1.85,0-.05.03-.11.01-.15-.2-.52,0-1,.13-1.49,0-.03.03-.08.02-.1-.2-.38.06-.72.11-1.07.04-.24-.03-.47-.03-.69-.01-.66-.12-1.32-.15-1.97-.02-.33.08-.67-.02-1.01-.03-.12-.02-.29.04-.39.18-.33.14-.62-.03-.93-.08-.14-.11-.33-.12-.49-.03-.48-.05-.96-.04-1.44,0-.38-.04-.72-.33-.97.21-.63.27-1.24-.02-1.85-.06-.14-.11-.29-.11-.44.02-.67-.04-1.33-.15-1.99-.07-.41,0-.85.01-1.28,0-.09.03-.17.02-.26-.11-.79.18-1.52.31-2.28.08-.46.2-.89.13-1.37-.04-.33.11-.68.12-1.02.01-.7-.02-1.4-.02-2.09,0-.19.04-.37.04-.56,0-.26.02-.53-.06-.76-.11-.31-.28-.59.02-.89.04-.04,0-.17,0-.25-.06-.54.09-1.09-.08-1.63.17-.3.07-.63.1-.95.07-.61-.17-.98-.77-1.2.11-.19.22-.34.3-.5.09-.18.19-.37.25-.56.1-.32.17-.42.5-.37.65.11,1.24-.23,1.88-.24.32,0,.65-.28.97-.27.3.01.57-.04.86-.1.37-.08.74-.17,1.11-.24.15-.03.31-.05.46-.05.66.04,1.28-.04,1.87-.37.49-.28,1.41,0,1.9.5.3-.13.59-.1.89.09.14.08.36.05.54.04.15-.01.3-.07.45-.12.25-.09.43,0,.58.21.05.07.11.14.16.2.31.35.29.34-.02.72-.23.28-.18.64-.11.97.04.2.13.36-.02.57-.07.11,0,.33.04.49.03.2.1.4.12.6.04.71.05,1.42.1,2.13.02.31.11.61.17.91.14.72.29,1.44.43,2.17.03.13.03.28,0,.41-.12.57.1,1.1.28,1.6.16.43.12.83.17,1.25.05.39.08.78.13,1.17.03.25.17.49,0,.74-.03.05-.02.14,0,.2.12.43.27.85.38,1.28.15.56.27,1.13.39,1.7.02.11-.04.24-.03.35,0,.15-.02.34.07.44.18.2.14.38.13.61-.02.71.13,1.4.37,2.07.08.22.11.46.2.68.22.56.26,1.16.35,1.75.04.24.2.46.32.73ZM68.7,45.06c.06-.13.11-.21.12-.3,0-.03-.11-.12-.12-.11-.07.06-.15.12-.18.2-.01.03.09.11.19.21ZM49.12,9.43c-.04.12-.08.17-.08.23,0,.03.06.06.1.09.04-.04.1-.09.11-.14,0-.05-.06-.1-.12-.19Z"/>
  <path d="M89.91,105.03c-.38-.02-.7-.13-1.05-.25-.5-.18-1.03-.25-1.55-.36-.08-.02-.18,0-.25.04-.82.43-1.76.44-2.63.69-.1.03-.21.03-.31.01-.23-.03-.42.05-.52.26-.19.4-.55.4-.89.37-.36-.03-.53-.36-.65-.65-.09-.21-.13-.48-.09-.7.11-.58-.11-1.08-.3-1.59-.06-.17-.09-.36-.12-.55-.01-.07.02-.14,0-.21-.21-.83-.32-1.68-.42-2.53-.04-.32-.24-.63-.39-.94-.15-.3-.37-.39-.61-.2-.26.21-.56.23-.86.3-.26.06-.5.21-.77.25-.45.06-.92.07-1.38.08-.43,0-.86-.03-1.28-.03-.24,0-.32.22-.32.4.02.44-.2.87-.03,1.33.08.2-.03.47-.06.71-.03.27-.09.53-.1.8-.02.37.06.77-.31,1.03-.06.04-.1.15-.11.22-.02.35-.03.71-.05,1.06,0,.11-.07.22-.11.33-.09.24-.28.48-.26.71.07.76-.39,1.2-.87,1.65-.29.27-.6.42-1,.46-.37.03-.75.23-1.1.17-.31-.05-.6.06-.89,0-.02,0-.04-.02-.05-.01-.7.23-1.46.08-2.15.38-.22.1-.5.1-.75.13-.35.03-.73.12-1.06.05-.34-.07-.69-.25-.94-.48-.35-.31-.49-.77-.56-1.24,0-.06.03-.14.06-.19.49-.69.49-1.53.7-2.3.2-.72.29-1.48.46-2.21.06-.24.24-.46.3-.7.13-.48.21-.97.32-1.46.08-.33.19-.65.29-.98.02-.08.05-.16.07-.25.08-.57.13-1.15.24-1.72.09-.5.25-.99.37-1.48.02-.08.04-.17.05-.25.06-.58.12-1.16.19-1.74.02-.13.08-.26.12-.39.05-.16.13-.33.13-.49.01-.82,0-1.64,0-2.47,0-.08,0-.17.03-.25.13-.41.3-.8.39-1.22.07-.3.04-.61.04-.92,0-.51.01-1.03.01-1.54,0-.24-.02-.48-.02-.72,0-.14-.02-.28.02-.41.2-.58.21-1.18.21-1.78.02-1.41.03-2.81.05-4.22,0-.1,0-.22.04-.3.33-.52.21-1.13.37-1.69.08-.28.16-.55.24-.83.06-.2.14-.39.16-.59.04-.48.06-.95.08-1.43.04-.69.2-1.35.38-2.01.06-.23.13-.47.13-.7-.02-.64.03-1.26.3-1.86.13-.3.13-.67.18-1,.02-.14-.02-.3.04-.41.29-.53.29-1.13.45-1.69.08-.3.1-.61.16-.91.14-.65.31-1.29.42-1.94.09-.56.11-1.13.16-1.69,0-.05,0-.11-.02-.15-.22-.39-.14-.73.11-1.09.1-.13.05-.4,0-.59-.07-.28-.07-.53.05-.8.21-.52.2-1.07-.02-1.56-.22-.49.09-.81.23-1.19.03-.07.16-.13.25-.15.45-.09.89-.12,1.37,0,.75.18,1.52.42,2.32.22.33-.08.68-.07,1.02-.12.21-.03.43-.16.63-.14.55.05,1.03-.35,1.59-.2.17.04.37.02.55-.02.42-.09.82-.23,1.24-.31.57-.11,1.15-.18,1.73-.26.09-.01.2.04.29.1.41.27.83.51,1.19.83.18.15.33.43.35.66.06.64.04,1.29.06,1.93,0,.07,0,.14.01.21.18.81.05,1.65.3,2.45.1.32.07.68.11,1.02.04.31-.06.66.23.92.02.02.04.07.03.09-.23.47.02.92.03,1.39,0,.47.17.94.23,1.42.13,1.16.22,2.32.37,3.47.07.56.25,1.1.37,1.66.12.59.23,1.18.34,1.76.05.25.08.51.1.76.04.41.06.82.09,1.23.02.2.04.41.06.61.04.31.08.61.12.92.03.2.06.41.1.61.07.35.16.7.21,1.05.13.94.26,1.87.37,2.81.07.63.12,1.26.18,1.89,0,.1.02.2.04.3.09.48.35.92.25,1.44-.03.18.14.38.19.58.11.48.2.97.3,1.45.08.4.17.8.24,1.2.13.78.24,1.56.35,2.34,0,.05,0,.11.02.15.35.71.33,1.5.43,2.26.07.58.1,1.16.19,1.73.09.54.24,1.07.37,1.6.2.88.41,1.76.6,2.65.04.2.07.41.06.62-.02.48.21.88.34,1.32.18.57.48,1.1.51,1.71,0,.1,0,.21-.03.3-.2.48-.34,1-.69,1.4-.13.15-.31.3-.49.35-.41.11-.83.16-1.25.24ZM76.45,89.61c1.01-.27,1.98-.52,2.95-.81.41-.12.82-.31.86-.83.01-.15-.02-.29-.02-.44.02-.71-.01-1.4-.19-2.1-.15-.56-.17-1.15-.27-1.73-.08-.45-.15-.9-.14-1.37,0-.35-.15-.7-.26-1.04-.07-.19-.1-.37.02-.54.23-.33.24-.7.12-1.03-.19-.53-.03-1.15-.41-1.63-.03-.04,0-.13,0-.2.02-.39-.2-1.08-.45-1.45-.39.45-.45,1.02-.55,1.57-.06.35-.11.71-.15,1.07-.04.37-.06.75-.09,1.12-.01.12-.03.23-.05.35-.15.71-.32,1.41-.43,2.12-.13.83-.2,1.66-.32,2.49-.04.32-.14.63-.19.95-.1.76-.19,1.53-.29,2.29-.01.08-.08.15-.11.23-.1.29-.19.59-.02.98Z"/>
  <path d="M88.92,51.38c-.38-.43-.93-.6-1.49-.64-.42-.03-.64-.33-.96-.48-.19-.09-.34-.28-.51-.42-.07-.05-.15-.13-.22-.12-.6.03-.92-.49-1.39-.72-.05-.03-.12-.09-.13-.14-.04-.41-.32-.67-.57-.94-.08-.09-.14-.25-.14-.37,0-.28-.12-.44-.33-.6-.27-.21-.44-.48-.46-.83-.02-.29-.15-.52-.35-.73-.27-.29-.49-.61-.45-1.05.01-.1-.07-.23-.14-.31-.36-.42-.29-.92-.31-1.41-.02-.48.14-.97-.09-1.46-.11-.23-.08-.53-.1-.8,0-.07.04-.15.01-.2-.35-.78-.06-1.59-.14-2.38-.06-.55,0-1.07.03-1.61,0-.13-.04-.28-.11-.38-.2-.25-.19-.49-.09-.77.07-.21.1-.43.11-.65.02-.36.05-.72.01-1.07-.13-1.12.15-2.22.08-3.34-.04-.77-.08-1.54-.1-2.31-.01-.71,0-1.43,0-2.14,0-.13,0-.29-.06-.4-.09-.17-.1-.33-.01-.49.1-.19.1-.37-.04-.53-.3-.34-.28-.75-.3-1.16-.02-.31-.07-.63-.12-.96.07-.23.18-.49.22-.76.14-.95.16-1.91.04-2.87-.01-.1-.04-.21-.01-.31.14-.48.27-.95.13-1.47-.06-.24-.04-.5-.05-.76,0-.15,0-.3.02-.45.05-.4.13-.8.17-1.21.03-.29.02-.58.03-.87,0-.56.01-1.12.03-1.68,0-.08.04-.17.05-.25.05-.25.11-.49.16-.74.02-.08,0-.18.03-.26.28-.62.32-1.28.39-1.94,0-.03,0-.07.03-.1.44-.55.6-1.28,1.12-1.77.49-.46.84-1.03,1.2-1.59.05-.09.1-.21.17-.25.6-.25.88-.84,1.35-1.22.32-.26.7-.43,1.04-.66.22-.15.49-.25.62-.52.04-.09.18-.17.29-.2.45-.14.83-.38,1.2-.68.33-.26.78-.37,1.08-.64.75-.67,1.71-.36,2.53-.64.05-.02.11,0,.15-.01.57-.28,1,.06,1.41.35.27.19.5.22.81.17.84-.13,1.65-.03,2.47.24.46.15.95.27,1.46.18.17-.03.71.19.79.34.25.46.62.81,1.03,1.12.23.18.36.5.71.54.06,0,.09.17.14.26.18.31.39.61.52.94.16.38.49.6.7.93.03.04.09.07.11.11.23.74.93,1.23,1.07,2.02.05.28.17.57.34.8.26.35.31.75.37,1.16.04.25.11.5.16.75.02.08.06.18.04.25-.26.83-.25,1.69-.36,2.53-.03.25-.13.49-.17.74-.04.29-.07.58-.05.86.05.97.14,1.95.19,2.92.02.27-.03.55-.05.82-.03.53-.09,1.06-.1,1.58,0,.35.07.71.11,1.06.02.15.05.31.04.46-.02.44-.05.88-.08,1.32,0,.03-.01.07,0,.1.25.74.03,1.49.09,2.24.06.84.07,1.69,0,2.52-.08.98.08,1.95-.02,2.92,0,.08-.01.18.02.25.23.53.1,1.09-.03,1.57-.12.45-.27.81.02,1.23.05.08.01.25-.04.35-.26.56-.19,1.15-.12,1.72.07.58.09,1.13-.08,1.72-.23.79-.3,1.62-.49,2.42-.11.47-.26.92-.26,1.41,0,.08,0,.19-.05.25-.29.37-.21.82-.28,1.23-.05.35-.08.71-.14,1.07-.02.09-.08.19-.15.26-.29.3-.4.67-.48,1.06-.05.26-.17.47-.4.63-.28.2-.51.43-.73.72-.24.33-.58.6-.93.83-.55.36-.99.83-1.41,1.32-.14.16-.26.23-.45.27-.36.08-.76.15-1.06.33-.36.22-.82.35-1.01.81-.02.06-.09.12-.15.13-.95.3-1.85.77-2.89.81-.76.03-1.51.25-2.27.37-.32.05-.65.06-.97.1-.34.04-.67.09-1.02.14ZM89.85,38.83s-.03,0-.05,0c.04.2.05.41.12.6.27.72.56,1.43.84,2.15.08.21.21.29.44.21.15-.05.33-.08.49-.06.51.06.97-.14,1.36-.38.23-.14.45-.32.71-.37.39-.07.64-.29.81-.62.15-.29.37-.56.42-.87.14-.95.25-1.9.31-2.85.04-.63-.03-1.26-.08-1.89-.05-.62-.15-1.23-.22-1.84-.1-.89-.04-1.78.04-2.66.04-.42.13-.84.1-1.27-.02-.23.07-.46.09-.69.05-.65.07-1.3.13-1.95.03-.38.11-.75.15-1.12.04-.41.07-.82.1-1.23.02-.25.04-.5.06-.75.02-.27,0-.54.04-.81.03-.27.13-.54.12-.81-.02-.7-.04-1.4.09-2.08.11-.55.32-1.08.07-1.64,0-.01,0-.03,0-.05.06-.33.14-.66.18-.99.02-.17,0-.34-.02-.51,0-.14-.07-.28-.04-.4.08-.37-.05-.71-.12-1.07-.05-.25-.07-.5-.1-.75-.01-.1-.01-.21-.03-.31-.06-.49-.16-.98-.18-1.47-.05-1.12-.56-1.95-1.47-2.57-.34-.23-.5-.21-.82.04-.13.1-.3.14-.45.21-.17.07-.35.13-.5.22-.22.13-.41.31-.64.43-.41.22-.83.41-1.25.6-.35.16-.48.36-.46.76,0,.08,0,.17,0,.25-.08.49-.21.98-.25,1.47-.04.54-.18,1.09.04,1.63.03.08.01.2-.02.3-.24.79-.27,1.61-.33,2.42-.05.7-.06,1.4-.06,2.1,0,.65-.06,1.32.07,1.94.14.66-.04,1.29.01,1.93.05.55-.12,1.12-.18,1.68-.01.13.05.27.06.4.02.29.04.58.03.86,0,.27-.08.54-.08.82,0,.49-.15.99.1,1.47.01.02,0,.07,0,.1-.03.53-.08,1.06-.07,1.59,0,.7.05,1.41.07,2.11,0,.22,0,.45,0,.67.03,1.06.19,2.12.02,3.18-.03.21-.05.41.14.57.06.05.11.14.11.22.04.36.06.72.1,1.08ZM87.88,37.38c-.03-.26-.06-.4-.24-.34-.05.02-.06.13-.09.2.09.04.18.07.33.14Z"/>
  <path d="M26.77,17.06c.24-.28.24-.67.26-1.07.01-.3.06-.59.11-.99-.15-.27-.14-.66,0-1.06.09-.27.11-.56.16-.84.04-.2.05-.41.11-.6.14-.43.27-.85.05-1.29-.04-.07-.07-.18-.05-.25.13-.34.04-.64-.12-.92.19-.26.37-.49.56-.74.37-.13.77-.17,1.21-.08.55.12,1.12-.03,1.67-.13.1-.02.21-.09.29-.07.73.17,1.38-.26,2.09-.24.15,0,.29-.08.44-.12.11-.03.26-.09.34-.05.39.23.69-.04,1.02-.13.13-.04.25-.15.38-.16.35-.03.69-.05.7-.56.17.06.27.08.35.13.46.31.96.34,1.48.23.49-.11.96-.1,1.38.23.41-.06.56.29.81.53,0,.05,0,.13-.03.19-.17.35-.25.68-.04,1.06.1.19.04.47.09.7.18.9.38,1.8.56,2.71.04.18,0,.37.01.55.02.34-.01.71.1,1.02.28.82.31,1.68.43,2.53.12.82.45,1.63.29,2.49-.03.17.06.37.09.56.1.82.16,1.64.3,2.45.24,1.37.53,2.73.78,4.09.04.2-.03.41-.01.61.05.42.14.84.19,1.26.04.35.23.7.04,1.06-.01.03,0,.07,0,.1.1.54.21,1.08.31,1.61.03.15.1.32.05.45-.2.57-.02,1.12.03,1.68.07.77.11,1.53.19,2.3.05.48.16.94.24,1.42.07.44.14.88.2,1.32.05.32.08.64.11.97.02.14.05.27.04.41-.07.77.16,1.5.31,2.24.1.5.13,1.02.2,1.53.03.2.09.4.11.61.03.23.06.47.04.71-.03.32-.02.61.19.88.08.1.13.26.11.38-.11.57.15,1.12.1,1.68-.01.13.01.27-.04.38-.13.28-.13.56-.06.85.22.79.43,1.59.63,2.38.04.17.06.34.07.51.01.4.03.78.22,1.15.09.17.1.4.11.6.02.23.15.41.22.61.14.39.21.83.19,1.24-.01.19-.32.37-.48.54-.3-.12-.53-.22-.79-.32-.05.09-.09.16-.14.23-.17.25-.38.44-.71.43-.37,0-.75-.04-1.12.01-.81.11-1.63-.13-2.42.1-.02,0-.03.01-.05.01-.94-.12-1.86.2-2.8.14-.1,0-.21-.02-.3-.05-.19-.07-.36-.06-.52.09-.15.14-.34.18-.49-.03,0-.01-.02-.03-.04-.04-.29-.17-.69-.24-.69-.67,0-.32.11-.63.16-.94.03-.15.06-.31.04-.46-.11-.64-.23-1.27-.35-1.91-.01-.08,0-.17,0-.25-.01-.44-.03-.89-.04-1.33,0-.19.02-.38-.21-.48-.04-.02-.07-.08-.08-.12-.06-.34-.11-.68-.16-1.02-.52-.23-1.05-.13-1.58-.07-.25.03-.51.02-.77.02-.84,0-1.68-.06-2.49.24-.28.1-.61.08-.91.09-.39,0-.45.05-.54.44-.1.46-.2.92-.3,1.38,0,.02,0,.04,0,.05.19.57-.15,1.03-.33,1.52-.04.09-.1.22-.07.29.16.35.03.67-.07,1-.05.18-.04.37-.06.56-.03.29-.05.58-.09.86-.08.48-.07.93.42,1.22.14.08.25.23.39.36-.16.26-.28.53-.47.74-.11.13-.31.19-.48.23-.24.06-.49.08-.81.13-.46-.27-1.64-.07-2.04.4-.66-.41-1.29-.36-2-.07-.45.19-.96.38-1.49.3-.16-.02-.32-.11-.47-.18-.18-.09-.33-.24-.52-.31-.3-.11-.44-.28-.44-.61,0-.18-.12-.36-.2-.61.12-.18.14-.43.03-.71-.04-.1.04-.25.08-.37.05-.14.15-.27.17-.41.06-.42.09-.84.14-1.27,0-.07-.01-.16.02-.2.34-.33.27-.8.43-1.19.11-.26.06-.58.11-.86.07-.35.18-.68.26-1.03.03-.14.07-.31.03-.43-.08-.24-.04-.41.09-.62.17-.27.29-.59.2-.93,0-.03-.02-.07-.01-.1.17-.55.19-1.15.36-1.68.17-.55.23-1.1.33-1.65.17-.88.25-1.78.36-2.68.01-.08-.01-.17-.02-.25-.04-.35-.03-.66.19-1.01.19-.31.18-.75.26-1.13.02-.12-.01-.28.06-.34.34-.31.3-.71.28-1.1-.01-.27.05-.5.16-.74.22-.49.43-1,.39-1.56,0-.08-.01-.18.02-.25.25-.6.16-1.24.23-1.87.01-.13.04-.27.08-.4.12-.41.28-.81.36-1.23.05-.23-.02-.49-.04-.83.15-.17.22-.46.15-.78-.02-.11,0-.24.02-.36.11-.42.15-.83.16-1.27.02-.41.2-.83.32-1.23.23-.76.34-1.53.32-2.32,0-.15,0-.33.07-.45.24-.4.27-.85.38-1.28.11-.43.13-.89.26-1.31.35-1.15.47-2.34.75-3.5.12-.48.16-.97.08-1.48-.08-.52-.04-1.05-.07-1.58-.01-.18-.08-.35-.13-.59ZM31.33,40.28c.26-.02.43-.03.61-.04.46-.03.87-.27,1.35-.2.37.05.6-.3.47-.65-.08-.21-.23-.39-.29-.6-.06-.19,0-.42-.05-.61-.14-.52-.2-1.07-.43-1.57-.08-.18-.08-.4-.13-.6-.05-.2-.13-.4-.19-.6-.23.36-.4.7-.5,1.06-.21.74-.41,1.48-.58,2.22-.11.49-.16,1-.25,1.59ZM43.5,55.56s.01-.1.02-.15c-.11-.02-.21-.05-.32-.06-.01,0-.04.08-.08.17.15.02.26.03.38.05ZM21.49,57.94s-.02.06-.04.1c.09.03.18.07.27.1.01-.03.02-.06.03-.09l-.27-.11Z"/>
  <path d="M10.2,58.94c.15.24.27.46.42.67.12.17.14.31-.02.45-.14.13-.15.28-.15.47,0,.57-.2.77-.79.81-.03,0-.07,0-.1.02-.52.32-1.1.12-1.65.19-.41.05-.81.07-1.22.02-.16-.02-.34.05-.5.1-.34.11-.7.2-1.01.37-.54.29-1.11.29-1.69.33-.46.03-.92.09-1.37.2-.22.05-.4.26-.61.36-.57.27-1.13-.15-1.09-.78.02-.3-.03-.61-.05-.91,0-.05-.02-.1-.01-.15.05-.47.13-.93.05-1.42-.06-.36.12-.74.11-1.12-.02-1,.17-1.98.25-2.97.03-.32,0-.65-.04-.96-.09-.81.03-1.61.05-2.41,0-.36.01-.72-.02-1.08-.01-.11-.15-.21-.24-.34.08-.22.17-.46.24-.7.02-.08.02-.17.02-.25,0-.39.03-.78-.01-1.17-.04-.35-.12-.71-.23-1.04-.16-.46-.17-.9.03-1.35.05-.1.07-.23.06-.35-.02-.73.04-1.49-.1-2.19-.11-.54.05-1.05-.06-1.58-.07-.35.1-.74.13-1.12.02-.2-.02-.41-.04-.61,0-.08-.06-.18-.04-.25.18-.64.03-1.25-.15-1.86-.03-.09-.01-.21.03-.3.14-.32.11-.65.02-.96-.21-.72-.21-1.43-.1-2.16.04-.25.03-.51.04-.76,0-.09-.02-.17,0-.26.1-.75-.07-1.5-.09-2.25-.01-.49-.04-.97.01-1.47.08-.75.06-1.5.08-2.26.03-1.22.06-2.43.08-3.65,0-.34-.04-.68-.07-1.03,0-.07-.04-.14-.04-.2.05-.72.11-1.43.14-2.15.02-.44,0-.88,0-1.33,0-.31.01-.62.01-.93,0-.34,0-.68,0-1.02,0-.02,0-.03,0-.05.01-.43.07-.85-.16-1.26-.06-.11,0-.31.04-.45.09-.26.27-.5,0-.74-.02-.02-.02-.07,0-.1.3-.53-.1-.98-.17-1.45.02-.05.04-.08.05-.11.2-.57.7-.75,1.2-.93.12-.04.29-.08.38-.03.24.14.48.16.74.13.11,0,.26,0,.34.07.22.2.46.17.73.13.42-.06.86-.06,1.28-.12.41-.05.81-.13,1.21-.21.77-.15,1.53-.32,2.3-.47.25-.05.51-.06.76-.12.21-.05.44-.08.61-.2.22-.15.45-.18.68-.11.19.06.35.06.55-.01.19-.07.4-.08.6-.07.38,0,.76,0,1.09-.22.08-.06.21-.12.29-.1.32.11.57-.09.83-.18.65-.23,1.28-.47,1.98-.5.25-.01.5-.09.76-.14.42-.08.84-.09,1.27,0,.21.05.44.02.65.02.49,0,.99.02,1.48.01.2,0,.41-.05.6-.11.9-.3,1.59.19,1.61,1.13,0,.32-.04.6-.14.9-.13.38-.23.79-.25,1.19-.01.27.12.55.21.82.02.08.15.17.13.21-.18.37.07.74-.02,1.1-.15.58-.02,1.11.17,1.65.01.03.02.07.04.09.34.29.51.67.6,1.11-.4.77-1.05,1.06-1.9.88-.41-.09-.83-.18-1.27-.08-.26.06-.55.02-.81-.03-.58-.11-1.15-.07-1.74.02-.45.07-.92.05-1.38.08-.1,0-.22-.01-.3.03-.4.2-.87-.07-1.26.17-.33-.12-.67-.14-1.01-.05-.43.11-.86.23-1.3.34-.08.02-.18.1-.24.08-.48-.19-.86.14-1.28.26-.31.09-.37.24-.31.56.08.39.19.76.26,1.15.07.37.1.74.15,1.11,0,.03,0,.08-.03.1-.37.39-.28.89-.33,1.35-.06.47-.15.94-.04,1.43.07.35,0,.72.28,1.01.04.04.03.13.04.2.04.79.09,1.58.12,2.37.03.73.03,1.47.06,2.2,0,.14.07.31.16.42.31.38.64.35,1-.04.36.03.72.14,1.03.05.43-.13.87-.16,1.31-.23.12-.02.24-.05.36-.03.34.07.64.08.89-.22.07-.08.25-.07.39-.09.32-.04.64-.07.96-.11.32-.04.64-.11.96-.13.23-.01.47-.03.66.21.07.09.25.1.38.14.32.11.48.28.43.6-.13.79-.02,1.61-.33,2.38-.04.11-.06.24-.06.35.02.44.04.88-.17,1.3-.04.08.02.2.02.3,0,.1.03.25-.03.29-.34.25-.04.63-.22.91-.02.04.01.15.06.18.28.2.35.48.39.8.02.14.13.27.21.41-.16.35-.31.69-.48,1.07-.23.02-.47.01-.7.06-.52.1-1.03.36-1.58.13-.4.18-.81.25-1.25.25-.11,0-.22.15-.35.21-.48.24-.8.46-1.27.03-.44.1-.86.16-1.26.28-.49.15-.97.34-1.44.55-.12.06-.24.27-.24.42-.02.57-.16,1.14-.04,1.73.07.32-.04.67-.03,1.01.01.44.08.87.09,1.3,0,.22-.07.45-.03.67.05.26.23.5.25.76.01.26-.21.55-.15.78.13.53,0,1.05.03,1.57.02.28.16.56.15.84,0,.45-.06.91-.15,1.35-.09.45-.05.92-.29,1.35-.1.18-.09.5,0,.7.24.49.14.97.05,1.46-.02.12-.06.25-.03.35.21.69.16,1.38.06,2.08,0,.05-.04.12-.02.14.25.28,0,.47-.14.67ZM16.34,33.55c-.05.07-.1.12-.11.17,0,.03.05.07.09.1.04-.04.1-.08.13-.13,0-.02-.05-.07-.1-.14Z"/>
  <path d="M.99,74.91c.35-.35.28-.84.22-1.34-.04-.37-.07-.74-.11-1.11,0-.05,0-.11.01-.15.2-.51.06-1.01-.04-1.52-.07-.35-.07-.72-.06-1.08.01-.71-.15-1.36-.55-1.94,0-.04.01-.07.02-.1.33-.84.63-1.05,1.54-1.05.08,0,.19,0,.24.05.32.29.68.21,1.03.12.71-.18,1.41-.41,2.12-.59.21-.05.44.02.65-.02.52-.1,1.05-.19,1.54-.38.65-.24,1.33-.39,2-.43.75-.05,1.44-.28,2.15-.43.22-.05.46-.14.7.01.06.04.17,0,.25-.02.54-.16,1.08-.34,1.62-.51.13-.04.26-.09.39-.09.56,0,1.12.05,1.68.04.4,0,.82,0,1.2-.19.09-.04.2-.06.3-.06.32.02.65.05.97.08.28.03.51-.02.78-.15.46-.23.96-.09,1.34.24.29.25.48.61.74.94-.32.31-.36.65-.31,1.02.02.17-.03.34-.02.51,0,.29.03.57.05.86,0,.08.06.19.02.25-.17.28-.09.56-.09.85,0,.27,0,.55-.04.8-.1.73.28,1.33.4,2,.05.27.22.52.34.78-.41.39-.63.81-.68,1.34-.01.12-.16.29-.29.34-.71.28-1.42.5-2.21.51-.68,0-1.39-.11-2.08.2-.4.18-.89.17-1.35.24-.34.06-.69.09-1.01.19-.57.17-1.12.43-1.7.58-.56.14-1.14.19-1.71.28-.14.02-.28.02-.41.05-.34.07-.37.13-.41.48-.09.67-.23,1.33-.29,2-.06.76-.22,1.52-.16,2.3.02.27-.04.54-.05.82-.02.38-.05.75-.03,1.13.02.67.1,1.33.1,2,0,.29.1.49.31.69.8-.11,1.61-.22,2.42-.33.08-.01.17-.04.25-.06.39-.13.77-.24,1.2-.06.22.09.51.02.76,0,.7-.08,1.4-.14,2.09-.27.65-.12,1.11.21,1.6.52.06.04.14.09.14.14.02.45.15.95,0,1.35-.12.35-.2.67-.2,1.03,0,.2-.03.41-.06.61-.07.51-.04,1.02.04,1.53.06.4,0,.82,0,1.23,0,.17,0,.34,0,.5,0,.08.06.2.02.25-.36.51-.05,1.04-.02,1.55.02.39.11.75-.27,1.02-.07.05-.06.19-.12.28-.06.09-.15.2-.24.23-.46.13-.93.24-1.39.36-.07.02-.16,0-.2.05-.2.26-.46.17-.71.12-.83-.18-1.63.11-2.44.15-.31.01-.62.04-.92.03-.74-.04-1.43.09-2.11.37-.29.12-.4.32-.48.61-.14.54-.09,1.08-.09,1.62,0,.26-.07.52-.07.79,0,.58-.09,1.17.15,1.73.03.07,0,.17,0,.26,0,.39-.04.78.08,1.17.09.28.05.6.04.91-.02.75.17,1.49-.02,2.25-.16.64-.17,1.33-.25,1.99-.03.22-.1.43-.14.64-.02.13-.05.29,0,.39.15.27.14.55.07.8-.15.51-.14,1.02-.11,1.54.03.56.07,1.13.07,1.69,0,.35.04.64.42.8.09.04.19.19.18.27-.05.58-.11,1.17-.57,1.6-.04.03-.1.06-.11.1-.16.64-.68.56-1.08.45-.75-.19-1.46,0-2.19.02-.84.03-1.65.35-2.5.29-.44-.03-.77.26-1.13.44-.62.3-1.28.19-1.65-.38-.24-.37-.38-.73-.29-1.2.09-.45.01-.92,0-1.39,0-.26-.02-.51-.04-.77,0-.1.03-.23-.02-.3-.35-.47-.16-.96-.08-1.44.14-.87.2-1.73.15-2.61-.04-.73-.1-1.48,0-2.2.07-.56.2-1.11.17-1.67.36-.68.08-1.43.2-2.12.13-.72-.09-1.45.15-2.15.02-.06,0-.14,0-.2-.02-.87-.05-1.74-.06-2.61,0-.65.01-1.3.02-1.95.01-.73.02-1.47.04-2.2.03-.99.04-1.99-.07-2.98-.03-.3,0-.61.03-.91.04-.53.02-1.07.15-1.58.22-.89.06-1.8.2-2.7.04-.28-.04-.58-.06-.87-.07-1-.23-1.99-.09-3.02.12-.84.16-1.71,0-2.57-.05-.28.03-.58.06-.86.06-.59.17-1.19.18-1.78,0-.31-.13-.62-.22-1Z"/>
  <path d="M95.06,93.54c-.41-.02-.81-.07-1.2-.2-.79-.26-.34-.89-.29-1.5.04-.5.03-1.01-.04-1.51-.02-.19,0-.38,0-.57.03-.42-.06-.85-.01-1.27s.07-.77.03-1.2c-.04-.43-.01-.86.01-1.29.02-.33-.02-.65.05-.98.06-.28.17-.57.16-.86s-.17-.59-.12-.9c.07-.4.13-.71.13-1.12,0-.56-.08-1.08-.14-1.64-.06-.47.07-.95.04-1.42-.03-.46-.19-.91.02-1.37.04-.09.02-.2.02-.31,0-.98.05-1.96-.05-2.92-.07-.63.06-1.22.07-1.83.02-.74-.01-1.47,0-2.21,0-.34.06-.68.06-1.02,0-.24-.05-.47-.07-.71,0-.07-.05-.14-.03-.2.21-.67.1-1.36.07-2.04-.01-.34.05-.68.06-1.02,0-.34-.01-.68-.19-1-.06-.1-.01-.25,0-.38.02-.24.08-.47.07-.71-.04-.68-.11-1.36-.14-2.03-.02-.49-.16-.97-.21-1.46s.09-.94.14-1.42c.06-.59.03-1.21.04-1.8,0-.76-.38-1.7.53-2.13.46-.21.85.1,1.3.12.4.02.63-.46,1.02-.39.16.03.31.11.48.15.49.11.95-.18,1.38-.35.46-.18.92-.31,1.42-.32.27,0,.39-.09.62-.18s.51-.07.76-.07c.39,0,.78-.07,1.16-.02.48.06,1.12.45,1.11,1.01,0,.34-.12.66-.09,1,.03.36.15.69.08,1.05-.11.55-.1,1.12-.13,1.68-.04.68-.07,1.36-.09,2.05-.01.32.01.65,0,.97-.04.82-.16,1.64-.1,2.46.05.77.02,1.54.03,2.3,0,.5.08.99.16,1.48.06.37.2.81-.06,1.14-.05.06-.11.11-.14.18-.1.2.04.42.15.61.34.6.24,1.13.26,1.77.01.34-.08.68-.1,1.02-.03.41,0,.83-.06,1.23-.03.27-.15.52-.23.78-.03.11-.11.23-.1.34.07.79-.23,1.53-.31,2.3-.04.42,0,.85-.03,1.28-.03.37-.09.74-.15,1.11-.05.29-.11.57,0,.86.04.09.03.21,0,.3-.14.49.02,1.03-.22,1.51-.05.09-.02.24.01.36.19.77.07,1.54.02,2.31-.04.54-.15,1.08-.22,1.63-.01.08-.04.18,0,.26.2.56-.13,1.22-.18,1.79-.04.48-.03.97-.1,1.45s-.17.9-.13,1.37c.04.52-.14,1-.34,1.47s-.65.6-1.13.7c-1.26.26-2.46.51-3.75.39-.44-.04-.88-.04-1.32-.07Z"/>
  <path d="M93.36,103.71s-.04-.07-.06-.11c-.15-.41-.48-.99-.41-1.42.02-.15.12-.29.14-.44.02-.17-.04-.37-.07-.54-.1-.52-.07-1.06-.1-1.59-.01-.28-.04-.56-.1-.83-.05-.21-.22-.46-.19-.68.02-.1.06-.2.09-.3.08-.28,0-.52-.02-.79,0-.19-.03-.4-.1-.58s-.19-.3-.18-.51c.02-.43.53-1.13.97-1.18.36-.04.83.11,1.2.13.62.03,1.23-.02,1.85-.02s1.29-.02,1.93-.15c.19-.04.38-.09.57-.07.08,0,.16.02.24.03.21.02.37-.07.56-.13.22-.07.46-.09.67-.2.13-.07.24-.19.36-.28.38-.28,1.21-.19,1.42.28.11.25.13.58.08.86-.24,1.3-.4,2.86.06,4.13.06.16.13.33.11.5-.02.15-.1.28-.14.43-.04.17,0,.34,0,.51.03.66-.17,1.3-.11,1.97.06.78-.81.88-1.39.89-.27,0-.53-.03-.8.03-.31.06-.61.18-.91.27-.55.16-1.18.14-1.75.19l-1.9.17c-.34.03-.69.05-1.02-.02-.36-.08-.61-.31-.93-.49-.02-.01-.05-.03-.07-.05Z"/>
</svg>